<svg width="12" height="20" viewBox="0 0 12 20" fill="none" xmlns="http://www.w3.org/2000/svg">
<path d="M10.4472 18.2547C10.4843 18.3519 10.5194 18.4485 10.5509 18.545C10.5602 18.5378 10.57 18.5303 10.5803 18.5226C10.5351 18.4337 10.4904 18.3446 10.4472 18.2547ZM8.89136 14.9344C8.77043 15.0453 8.65568 15.1402 8.55967 15.2148L8.58788 15.2625C8.63473 15.3394 8.67908 15.4172 8.72443 15.4936L9.03302 15.3172C9.31791 15.941 9.63472 16.523 9.93668 17.1251C9.98143 17.2143 10.0248 17.3049 10.0684 17.3948C9.72658 16.559 9.44635 15.7022 9.17678 14.8664C9.15355 14.8481 9.13782 14.8391 9.1294 14.8353C9.11909 14.8306 9.1166 14.8306 9.11561 14.8308C9.10933 14.8313 9.08746 14.8352 9.03961 14.8564C8.99785 14.8749 8.953 14.8995 8.89136 14.9344ZM8.28062 13.5057C8.30863 13.5784 8.33651 13.6504 8.36154 13.7227C8.36799 13.7174 8.37453 13.7122 8.38111 13.7071C8.34705 13.6407 8.31372 13.5735 8.28062 13.5057ZM6.76116 10.1926C6.63757 10.3193 6.5153 10.4165 6.40478 10.4938L6.4293 10.5358C6.47626 10.6128 6.5208 10.6912 6.56626 10.7678L6.87485 10.5913C7.15975 11.2152 7.47654 11.7972 7.7785 12.3992C7.81762 12.4772 7.85525 12.5563 7.89356 12.6348C7.56766 11.8387 7.27804 10.9747 6.98 10.0865C6.95843 10.0943 6.93089 10.1029 6.89758 10.119C6.85552 10.1394 6.81212 10.1639 6.76116 10.1926ZM6.0842 8.70318C6.1232 8.80781 6.15847 8.91033 6.18803 9.01014C6.19953 9.00041 6.21103 8.99062 6.22294 8.98122C6.17599 8.8898 6.12936 8.79736 6.0842 8.70318ZM4.57585 5.48223C4.4544 5.59369 4.33838 5.68793 4.24207 5.7627L4.26623 5.80154C4.3154 5.8792 4.3618 5.95977 4.41022 6.0396L4.71627 5.86462C4.95987 6.39803 5.27521 6.97712 5.57855 7.58188C5.62557 7.67563 5.67206 7.77145 5.71843 7.86711C5.39946 7.08258 5.11466 6.23331 4.82182 5.36064C4.80026 5.36845 4.77273 5.37704 4.7394 5.3932C4.69005 5.41713 4.63881 5.44647 4.57585 5.48223ZM3.92603 3.97734C3.95613 4.05813 3.98448 4.13744 4.00913 4.21549C4.01828 4.21067 4.0274 4.20564 4.03666 4.20087C3.99934 4.12717 3.96221 4.05281 3.92603 3.97734ZM2.41982 0.754049C2.29732 0.863985 2.1768 0.949639 2.07243 1.01877L2.10805 1.0757C2.15722 1.15336 2.20363 1.23393 2.25205 1.31376L2.55809 1.13878C2.80173 1.67227 3.11699 2.25118 3.42037 2.85604C3.46758 2.95017 3.51411 3.04611 3.56066 3.14216C3.24142 2.35711 2.9563 1.50725 2.66324 0.633911C2.64169 0.641727 2.61412 0.650328 2.58082 0.666474C2.53214 0.690079 2.48162 0.718961 2.41982 0.754049Z" fill="white" stroke="white" stroke-width="1.18841"/>
</svg>
