<svg width="69" height="36" viewBox="0 0 69 36" fill="none" xmlns="http://www.w3.org/2000/svg">
<path d="M37.5039 0.49707C36.6246 0.307339 35.8124 0.210835 35.1504 0.265625C34.4945 0.319931 33.9258 0.52897 33.624 1.01465C33.3225 1.50012 33.3868 2.10232 33.6289 2.71387C33.8734 3.33129 34.3209 4.01577 34.8809 4.71973C35.8625 5.95377 37.2239 7.28895 38.5625 8.49121L39.1338 8.99805C40.5311 10.2207 42.1659 11.5404 44.0078 12.9355C39.6533 12.528 34.7449 12.3115 29.6855 12.3115C22.6033 12.3115 15.2932 12.7522 9.74902 13.6035C6.97925 14.0288 4.63702 14.5585 2.98145 15.1924C2.15482 15.5089 1.48327 15.857 1.01465 16.2422C0.547 16.6267 0.250086 17.0754 0.25 17.5889C0.25 18.1023 0.547046 18.5511 1.01465 18.9355C1.48328 19.3208 2.15482 19.6689 2.98145 19.9854C4.63702 20.6192 6.9792 21.149 9.74902 21.5742C15.2932 22.4253 22.6033 22.8662 29.6855 22.8662C34.4959 22.8662 39.2077 22.667 43.417 22.2939C42.1031 23.5163 40.9162 24.6766 39.8818 25.7598C38.4921 27.2139 37.017 28.894 36.0244 30.3984C35.5292 31.1491 35.1449 31.8702 34.9561 32.5068C34.769 33.1378 34.7582 33.744 35.1016 34.2012C35.441 34.6523 36.0154 34.8124 36.6611 34.8125C37.6515 34.8125 38.959 34.4391 40.333 33.9053C41.3693 33.5026 42.4602 33.0021 43.5078 32.4805L44.5371 31.9551C46.9386 30.7026 49.6292 29.1123 52.5352 27.2285L52.54 27.2256L56.54 24.5215L56.5459 24.5176L57.9551 23.5049L57.9561 23.5039C61.2663 21.1001 64.4259 18.7656 67.3457 16.5625L67.6504 16.334L67.9424 16.1143L67.6318 15.9219L67.3086 15.7207C63.951 13.6351 60.5947 11.5886 57.334 9.63965L57.332 9.63867L53.9629 7.68555L53.9561 7.68164L51.6133 6.41504L51.6113 6.41406C48.5387 4.79188 45.7175 3.44642 43.2227 2.41406C41.3648 1.64463 39.2655 0.877214 37.5039 0.49707ZM34.4922 1.55273C34.5314 1.49208 34.7865 1.18477 35.9785 1.28027C37.1782 1.37646 39.257 1.87855 42.832 3.35938C45.2937 4.37719 48.0856 5.70873 51.1309 7.31641L51.1318 7.31543L54.6602 9.24512L56.8125 10.5176C59.8606 12.3403 62.9931 14.2495 66.1328 16.1943C63.3869 18.2602 60.4387 20.4374 57.3594 22.6738L54.1914 24.9082L51.9775 26.3711L50.9082 27.0576C48.436 28.6268 46.1375 29.9659 44.0645 31.0479C40.6343 32.8393 38.6083 33.5244 37.4219 33.7266C36.2285 33.9299 35.9574 33.6358 35.9199 33.5859H35.9189C35.8802 33.534 35.6771 33.1896 36.2031 32.1025C36.7276 31.0188 37.9486 29.263 40.6211 26.4668C41.9234 25.1045 43.4699 23.6093 45.2197 22.0234L45.8086 21.4893L46.3711 20.9775L45.6152 21.0547L44.8242 21.1357C40.2837 21.599 35.0482 21.8437 29.6855 21.8438C21.1225 21.8438 13.9708 21.2623 8.96582 20.4111C6.46168 19.9852 4.5054 19.4929 3.18066 18.9775C2.51701 18.7194 2.02593 18.4603 1.70508 18.21C1.37765 17.9544 1.27246 17.7446 1.27246 17.5889C1.27256 17.4332 1.3778 17.2232 1.70508 16.9678C2.02595 16.7174 2.51711 16.4584 3.18066 16.2002C4.5054 15.6847 6.46171 15.1926 8.96582 14.7666C13.9708 13.9152 21.1225 13.334 29.6855 13.334C35.4355 13.334 40.9847 13.6114 45.7324 14.1357L46.7012 14.2432L47.6289 14.3457L46.877 13.793L46.0918 13.2168C43.658 11.4269 41.5438 9.74823 39.8086 8.22754H39.8076C36.8975 5.67933 35.5259 4.03853 34.9072 3.00586C34.2849 1.96702 34.459 1.6072 34.4922 1.55371V1.55273Z" fill="#333B41" stroke="#333B41" stroke-width="0.5"/>
</svg>
