<svg width="87" height="96" viewBox="0 0 87 96" fill="none" xmlns="http://www.w3.org/2000/svg">
<path d="M39.499 5.26397C39.1495 4.93634 38.8 4.69607 38.4724 4.52134C38.1448 4.36844 37.7734 4.28107 37.3584 4.28107C36.8779 4.28107 36.5284 4.39028 36.2882 4.58686C36.0479 4.78344 35.9169 5.11108 35.9169 5.54792C35.9169 5.85371 36.0479 6.13766 36.31 6.33424C36.5721 6.55266 36.8779 6.74924 37.2711 6.94582C37.6642 7.1424 38.0792 7.33898 38.5161 7.5574C38.9529 7.77582 39.3679 8.01609 39.7611 8.32188C40.1542 8.62767 40.46 8.97715 40.7221 9.41399C40.9842 9.85083 41.1153 10.375 41.1153 10.9866C41.1153 11.9258 40.8532 12.734 40.3508 13.4111C39.8485 14.0882 39.0621 14.5251 38.0574 14.7653V16.8185H36.1571V14.8527C35.5892 14.7872 34.9776 14.6343 34.3442 14.3722C33.7108 14.1101 33.1647 13.7824 32.7061 13.3674L33.9729 11.4235C34.4753 11.7948 34.9558 12.0787 35.3926 12.2753C35.8513 12.4719 36.31 12.5593 36.7687 12.5593C37.3148 12.5593 37.7298 12.4501 37.97 12.2316C38.2321 12.0132 38.3632 11.6637 38.3632 11.2051C38.3632 10.8556 38.2321 10.5716 37.97 10.3314C37.7079 10.0911 37.4021 9.87268 37.009 9.65425C36.6158 9.43583 36.2008 9.21741 35.764 8.99899C35.3271 8.78057 34.9121 8.51846 34.519 8.21267C34.1258 7.90688 33.82 7.5574 33.5579 7.1424C33.2958 6.7274 33.1647 6.24687 33.1647 5.65713C33.1647 4.69607 33.4268 3.88791 33.9511 3.25449C34.4753 2.62106 35.2179 2.20606 36.1353 2.03132V0H38.0356V1.98764C38.669 2.07501 39.215 2.27159 39.6956 2.55554C40.1761 2.83949 40.5911 3.18896 40.9843 3.60396L39.499 5.26397Z" fill="#333B41"/>
<path fill-rule="evenodd" clip-rule="evenodd" d="M86.5251 76.0006L82.9314 73.7891L74.9146 88.164L78.7848 90.0991L86.5251 76.0006Z" fill="#333B41"/>
<path fill-rule="evenodd" clip-rule="evenodd" d="M80.9958 73.2357C71.5969 62.4546 63.3036 65.219 52.246 72.4064C42.5706 78.7646 35.3831 74.3415 28.1957 77.3824C26.537 78.2117 24.049 80.1468 26.2606 82.0819C27.3663 82.9112 31.7894 83.7405 33.1716 83.4641C40.6355 81.8054 42.847 85.1227 54.1811 82.9112C50.8638 85.3991 40.0826 83.7405 33.448 84.5698C28.1957 85.6756 19.626 81.529 26.537 76.8295C23.4962 75.4473 20.7318 74.6179 17.4145 74.3415C14.0972 71.8535 8.8448 68.8127 6.08039 67.7069C3.86887 66.3247 -1.65995 66.8776 1.93378 70.4713C5.52751 73.7886 15.2029 81.2525 17.138 82.3583C24.8784 87.0578 32.0658 90.3751 39.5297 94.5217C39.5297 94.5217 42.0177 95.9039 46.9936 93.9688C50.5874 92.3102 66.6209 83.4641 70.4911 84.8463C72.7026 85.6756 73.8084 86.2285 73.8084 86.2285L80.9958 73.2357Z" stroke="#333B41" stroke-width="1.5"/>
<path fill-rule="evenodd" clip-rule="evenodd" d="M34.2779 72.406C34.8308 71.3003 35.3837 70.471 36.213 70.1945C37.0424 69.9181 37.3188 70.471 37.8717 71.0238C38.4246 71.8532 38.701 72.1296 39.5303 72.6825C39.8068 72.9589 40.3596 72.9589 40.6361 72.9589L40.0832 72.6825C39.2539 72.1296 38.701 71.5767 38.9774 70.471C38.9774 70.1945 38.701 69.6416 39.2539 69.6416C39.8068 69.9181 40.6361 70.471 41.4654 70.471C41.4654 70.471 42.2947 70.7474 42.0183 70.471C42.0183 70.1945 41.4654 69.9181 41.189 69.6416C39.5303 68.2594 39.5303 67.983 39.5303 66.0479C39.8068 63.2835 38.701 61.072 36.7659 59.1369C32.3429 54.7138 34.2779 48.6321 37.5952 42.8269C40.6361 37.5745 43.4005 36.7452 40.3596 30.387C39.2539 27.6226 37.3188 24.8582 37.0424 23.1996C37.0424 22.6467 37.0424 22.9231 37.0424 23.1996C36.7659 24.8582 37.8717 27.3462 38.9774 29.8342C41.4654 35.363 40.9125 35.9159 37.3188 40.8918C33.4486 45.8677 30.6842 51.1201 32.3429 56.6489C33.4486 60.5191 38.9774 64.3893 36.213 66.8772C34.8308 67.983 32.8957 70.7474 32.6193 72.406C32.3429 73.2354 32.3429 73.2354 32.0664 73.7882C31.79 74.0647 32.0664 74.0647 32.3429 74.0647C33.7251 73.7882 33.7251 73.2354 34.2779 72.406Z" fill="#333B41"/>
<path d="M54.3799 45.5542C53.4148 45.6409 52.4638 45.8565 51.4873 46.1392C50.8463 46.3247 50.2023 46.5367 49.5361 46.7573C48.8837 46.9734 48.2091 47.1974 47.5166 47.4058C42.3834 49.2992 39.6069 51.6578 38.5977 54.3638C38.3471 55.6536 38.38 56.8189 38.8184 57.6958L38.8555 57.77L38.875 57.8491C39.0482 58.5419 39.7511 59.1807 40.6914 59.6978C41.7351 58.7157 42.4657 57.8389 43.1816 56.9282C42.8702 57.2491 42.5946 57.544 42.3408 57.8062C42.1446 58.0089 41.954 58.199 41.7793 58.3501C41.622 58.4861 41.4024 58.6583 41.1494 58.7427L40.96 58.8062L40.7646 58.7671C39.8701 58.5881 39.1975 58.0931 38.9219 57.2661C38.7036 56.611 38.7749 55.8549 38.9932 55.0845L39.0947 54.7534C39.5962 52.8335 41.1064 51.3299 43.3389 50.0542C45.5967 48.764 48.7086 47.6386 52.5928 46.5288L53.5049 46.2681L53.5488 47.2163C53.6966 50.4684 52.3038 54.3668 50.0146 57.4429C48.8291 59.0359 47.3683 60.4499 45.71 61.4438C46.8024 61.0684 48.0049 60.3804 49.2207 59.1665C52.4531 55.6768 53.3441 51.2406 54.3799 45.5542Z" stroke="#333B41" stroke-width="1.5"/>
<path d="M23.6646 34.7764C24.272 36.2336 25.0749 37.5382 26.2388 38.7021L26.2485 38.7129L26.2573 38.7227C26.894 39.4083 27.5345 39.8989 28.1519 40.2461C27.031 39.4573 26.0385 38.4465 25.2095 37.3311C24.6178 36.535 24.0996 35.6707 23.6646 34.7764ZM35.0171 34.9277C35.3069 35.7206 35.3244 36.5072 35.0366 37.1787C34.7305 37.893 34.1178 38.3872 33.354 38.5781L33.1421 38.6309L32.9351 38.5625C32.8505 38.5343 32.771 38.4941 32.6948 38.4521C32.8692 38.6508 33.0512 38.8544 33.2476 39.0625L33.2671 39.0586L33.606 38.96C34.3511 38.7098 34.7716 38.311 34.9321 37.6689L34.9526 37.5889L34.9888 37.5156L35.0679 37.3477C35.4261 36.5326 35.4088 35.7454 35.0171 34.9277ZM21.6831 27.1377C21.868 28.0427 22.0432 28.9106 22.2212 29.7432C22.184 29.2891 22.1721 28.8439 22.1948 28.4121L22.2446 27.4668L23.1538 27.7314C26.4862 28.7034 29.1787 29.6904 31.1558 30.8047C32.9306 31.8051 34.2217 32.9623 34.8228 34.3936C33.9905 32.1214 31.7791 30.1733 27.4312 28.8945L27.4058 28.8867C25.2328 28.1624 23.5925 27.4865 21.6831 27.1377Z" stroke="#333B41" stroke-width="1.5"/>
<path d="M50.3049 28.6733C49.9855 29.0545 49.6457 29.419 49.2854 29.7583C49.4452 29.6232 49.6065 29.4766 49.7678 29.3159C49.9579 29.1061 50.1361 28.8916 50.3049 28.6733ZM42.6633 28.7065C42.8517 29.054 43.1113 29.3396 43.4758 29.52C43.581 29.4106 43.6817 29.3026 43.7795 29.1968C43.7457 29.1999 43.7112 29.2026 43.676 29.2026H43.554L43.4387 29.1636C43.1363 29.0627 42.8771 28.9063 42.6633 28.7065ZM53.5237 19.4214C51.9923 19.7198 50.4148 20.1959 48.6389 20.8618L48.6282 20.8657C45.1417 22.1109 43.2306 23.5154 42.3831 25.397C42.961 24.2006 44.0049 23.2237 45.4797 22.3765C47.1879 21.3953 49.5422 20.5466 52.6008 19.7124L53.5159 19.4624C53.5184 19.4487 53.5211 19.4351 53.5237 19.4214Z" stroke="#333B41" stroke-width="1.5"/>
</svg>
