<svg width="126" height="73" viewBox="0 0 126 73" fill="none" xmlns="http://www.w3.org/2000/svg">
<path d="M44.7483 49.4046C44.5681 49.0637 44.3879 48.7797 44.2678 48.4388C43.4269 46.5073 43.4269 45.0303 43.7272 43.1556C43.9675 41.7922 43.9074 41.1105 43.4869 40.5992C43.0064 40.0312 42.2856 39.9743 41.2645 39.8607H41.0843C40.7839 39.8039 40.4836 39.8039 40.2433 39.8039C37.9007 39.6903 36.5793 39.7471 35.9786 40.5992C35.3779 41.3946 35.7984 42.5875 36.6393 44.2918C37.0598 45.1439 37.24 45.9961 37.3601 46.621C36.339 46.6778 35.1377 47.1322 33.6961 47.7003C30.7528 48.8365 26.7283 50.4271 21.8029 49.0069C15.9764 47.3595 11.111 42.9852 8.46807 40.5992C7.20667 39.4631 6.66607 38.9518 6.2456 38.8382C5.64494 38.6677 4.86407 39.0654 4.4436 39.2926L4.20334 39.4063C3.903 39.6335 3.48254 39.9743 3.30234 40.372C2.88187 41.6786 2.8218 44.1214 3.84294 46.8482C3.48254 46.6778 3.24227 46.621 3.002 46.5641C2.40134 46.5073 1.7406 46.9618 1.2 47.4731L1.0198 47.6435C0.71947 47.9276 0.35907 48.382 0.35907 48.8365C0.238937 50.9384 1.32014 54.2333 3.903 57.301H3.84294C3.24227 57.4146 2.70167 58.0963 2.34127 58.7212V58.9484C2.16107 59.3461 1.98087 59.8574 2.04094 60.3118C2.6416 62.641 5.10434 65.9927 9.24894 68.3218C11.7717 69.7421 15.616 71.1055 20.9019 71.1055C23.2445 71.1055 25.8874 70.8214 28.7706 70.1397C35.6182 68.5491 41.9853 63.9476 44.5681 58.5508C46.1899 55.3695 46.25 52.1882 44.7483 49.4046ZM4.38354 40.656C4.38354 40.656 4.4436 40.5992 4.4436 40.5424C4.56374 40.7697 4.74394 41.0537 4.92414 41.3378C6.48587 44.0078 9.90967 50.0295 17.9586 53.0403C12.9731 51.8473 8.52814 49.4046 5.8852 47.9276C5.705 47.8139 5.5248 47.7003 5.3446 47.6435C4.0832 44.8599 3.903 42.1331 4.38354 40.656ZM1.50034 48.9501C1.50034 48.9501 1.50034 48.8365 1.62047 48.7229C1.80067 48.8933 2.101 49.2342 2.40134 49.5182C4.92414 52.1882 10.8707 58.494 21.7428 59.1189C22.1032 59.1189 22.4035 59.1189 22.7639 59.1189C23.8451 59.1189 24.9864 59.0052 26.0075 58.778C25.8874 58.8348 25.7072 58.8348 25.5871 58.8916C18.7995 60.4255 11.2912 58.7212 7.26674 57.8123C6.606 57.6418 6.0654 57.5282 5.64494 57.4714C2.58154 54.4605 1.3802 50.9384 1.50034 48.9501ZM43.6071 58.2099C41.1443 63.2659 35.1377 67.697 28.5904 69.174C11.8919 72.9802 4.0832 63.834 3.12214 60.0846C3.12214 60.0278 3.12214 59.971 3.1822 59.8006C3.48254 59.9142 3.84294 60.1414 4.20334 60.3686C7.62714 62.3569 15.616 66.9584 26.7283 64.4021C34.0565 62.7546 37.7806 57.4146 39.943 53.4948C40.0631 53.2676 40.0031 52.9267 39.7027 52.8131C39.4625 52.6995 39.1021 52.7563 38.9819 53.0403C36.9397 56.7329 33.3357 61.8457 26.428 63.4363C15.7361 65.8791 8.0476 61.3912 4.74394 59.5165C4.2634 59.2325 3.903 59.0052 3.60267 58.8916C3.84294 58.5508 4.0832 58.3235 4.20334 58.3235C4.50367 58.2667 5.76507 58.5508 6.9664 58.8348C9.8496 59.5165 14.5348 60.5391 19.5203 60.5391C21.5626 60.5391 23.725 60.3686 25.7673 59.8574C31.0531 58.6644 34.1766 55.6535 36.6994 52.5859C36.8796 52.3586 36.8195 52.0178 36.5793 51.8473C36.339 51.6769 35.9786 51.7337 35.7984 51.961C35.5581 52.245 35.2578 52.5859 35.0175 52.8699C30.7528 56.6193 26.3679 58.3235 21.6827 58.0395C11.2912 57.4714 5.5248 51.3929 3.06207 48.7797C2.70167 48.382 2.4614 48.1548 2.22114 47.9276C2.52147 47.7003 2.76174 47.5867 2.88187 47.5867C3.1822 47.6435 4.20334 48.2116 5.22447 48.7797C8.70834 50.7112 15.1955 54.2901 22.0431 54.6878C22.4035 54.6878 22.7039 54.6878 23.0643 54.6878C25.4669 54.6878 27.5092 54.2333 29.3112 53.4948H29.3713C29.4313 53.4948 29.4313 53.438 29.4914 53.438C31.7739 52.5291 33.5759 51.2793 35.1377 50.2567C35.6783 49.9159 36.1588 49.575 36.5793 49.291C36.8195 49.1205 36.8796 48.8365 36.7595 48.6093C36.5793 48.382 36.2789 48.3252 36.0387 48.4388C35.5581 48.7229 35.0776 49.0637 34.537 49.4046C32.9753 50.4271 31.1733 51.6769 28.8907 52.5291C25.9475 53.3812 23.0643 53.438 20.3012 52.6427C11.1711 50.0863 7.44694 43.5533 5.82514 40.7697C5.58487 40.372 5.46474 40.088 5.28454 39.8607C5.58487 39.7471 5.76507 39.6903 5.8852 39.6903C6.12547 39.8039 6.90634 40.4856 7.6872 41.2241C10.3301 43.6101 15.3157 48.098 21.3824 49.8022C22.8841 50.1999 24.3257 50.3703 25.6471 50.3703C29.0109 50.3703 31.7739 49.291 33.9964 48.4388C35.5581 47.8139 36.8796 47.3027 37.7806 47.4731H37.8407H37.9007C37.9007 47.4731 37.9007 47.4731 37.9608 47.4731C38.0209 47.4731 38.0209 47.4731 38.0809 47.4163C38.0809 47.4163 38.141 47.4163 38.141 47.3595C38.2011 47.3595 38.2011 47.3027 38.2611 47.3027L38.3212 47.2458C38.3212 47.2458 38.3813 47.189 38.3813 47.1322C38.3813 47.0754 38.3813 47.0754 38.4413 47.0186C38.4413 47.0186 38.4413 47.0186 38.4413 46.9618V46.905V46.8482C38.3813 46.1665 38.2011 44.8031 37.6004 43.5533C37.3001 42.9284 36.5192 41.3378 36.8796 40.8833C37.1799 40.4288 38.8017 40.4856 40.2433 40.5424C40.4836 40.5424 40.7239 40.5424 40.9641 40.5992H41.1443C41.9252 40.656 42.4658 40.7697 42.646 40.9401C42.8262 41.1673 42.8262 41.7354 42.7061 42.7012C42.3457 44.6895 42.3457 46.3937 43.3067 48.5524C43.4269 48.8933 43.6071 49.2341 43.7873 49.575C45.1087 52.3586 45.0487 55.1991 43.6071 58.2099Z" fill="#333B41" stroke="#333B41" stroke-width="0.7"/>
<path d="M42.0465 57.2438C41.8062 57.1302 41.4458 57.2438 41.3257 57.471C39.0432 62.1293 33.457 66.2196 27.3902 67.583C27.0899 67.6398 26.9097 67.9238 26.9698 68.2079C27.0298 68.4351 27.2701 68.6055 27.5104 68.6055C27.5704 68.6055 27.5704 68.6055 27.6305 68.6055C34.0576 67.1853 39.9442 62.8678 42.3468 57.9255C42.467 57.6983 42.3468 57.4142 42.0465 57.2438Z" fill="#333B41" stroke="#333B41" stroke-width="0.7"/>
<path d="M67.9756 0.357773C64.7785 0.255489 61.632 1.1777 58.992 2.99084C56.352 4.80398 54.3556 7.41388 53.2919 10.4424C53.242 10.5846 53.155 10.7108 53.0399 10.8077C52.9249 10.9046 52.786 10.9687 52.6378 10.9934C51.0169 11.2687 49.5472 12.116 48.4932 13.3825C47.4392 14.6491 46.8702 16.2519 46.8886 17.9021C46.907 19.5524 47.5117 21.1418 48.5937 22.3843C49.6757 23.6268 51.164 24.441 52.7906 24.6798C52.9527 24.7036 53.1044 24.7745 53.2268 24.8838C53.3492 24.9931 53.4371 25.1359 53.4795 25.2948C54.2753 28.2709 55.9904 30.9172 58.3783 32.8534C60.7661 34.7896 63.7039 35.916 66.7694 36.071C66.1003 38.5246 65.6947 41.0431 65.5597 43.5834L60.4992 42.7803C59.4323 42.6109 58.3421 42.8739 57.4684 43.5114C56.5947 44.1489 56.009 45.1086 55.8402 46.1796C55.6714 47.2507 55.9333 48.3451 56.5682 49.2223C57.2032 50.0995 58.1592 50.6874 59.226 50.8569L66.0996 51.947C66.2946 53.0158 66.5383 54.075 66.8297 55.1215C65.2656 56.8293 64.3976 59.0647 64.3978 61.3847V62.8316C64.3976 63.0547 64.3093 63.2687 64.1521 63.4264C63.995 63.5841 63.7819 63.6728 63.5597 63.673H63.058C62.4633 63.6726 61.8742 63.7901 61.3246 64.0183C60.775 64.2466 60.2756 64.5813 59.8548 65.0034C59.4341 65.4255 59.1004 65.9267 58.8726 66.4783C58.6449 67.0299 58.5276 67.6212 58.5276 68.2183V69.4038C58.5276 69.7389 58.5935 70.0707 58.7213 70.3803C58.8492 70.6898 59.0365 70.9709 59.2727 71.2077C59.5089 71.4445 59.7892 71.6323 60.0977 71.7603C60.4062 71.8883 60.7367 71.9539 61.0705 71.9536H93.2731C97.6021 71.9541 101.882 71.0362 105.833 69.2598C109.784 67.4834 113.316 64.8887 116.199 61.6458C120.76 57.0541 123.809 51.168 124.933 44.7819C125.623 39.2351 124.123 33.6374 120.754 29.1865C118.124 25.7977 114.551 23.2696 110.487 21.9226C107.68 21.0742 104.677 21.1464 101.914 22.1289C99.1515 23.1114 96.7728 24.9529 95.1239 27.3857C94.8105 27.8468 94.5908 28.3653 94.4772 28.9117C94.3636 29.4581 94.3584 30.0214 94.4619 30.5698C94.5654 31.1182 94.7756 31.6407 95.0804 32.1075C95.3852 32.5742 95.7787 32.9762 96.2384 33.2901C96.698 33.6041 97.2148 33.8239 97.7592 33.9372C98.3035 34.0505 98.8648 34.055 99.4109 33.9504C99.957 33.8458 100.477 33.634 100.942 33.3274C101.406 33.0207 101.806 32.6253 102.118 32.1635C102.745 31.2385 103.646 30.5347 104.693 30.1516C105.74 29.7684 106.881 29.7252 107.953 30.0281C110.361 30.8515 112.478 32.3584 114.049 34.3659C116.018 36.9871 116.917 40.2628 116.564 43.5262C115.694 48.196 113.416 52.4848 110.039 55.8131C106.808 59.5277 102.443 62.0651 97.6257 63.0294C97.5861 63.0371 97.5451 63.0348 97.5066 63.0226C97.4681 63.0104 97.4332 62.9887 97.4051 62.9596C97.3771 62.9304 97.3567 62.8947 97.3459 62.8557C97.3351 62.8166 97.3341 62.7754 97.3432 62.7359C98.8287 56.4821 98.4061 49.9243 96.1304 43.9148C94.9648 40.1453 93.0195 36.6655 90.4218 33.7028C87.8242 30.7401 84.6326 28.3616 81.0561 26.7226C81.2339 26.2549 81.3876 25.7782 81.5165 25.2946C81.5589 25.1357 81.6468 24.9929 81.7693 24.8836C81.8917 24.7743 82.0434 24.7033 82.2055 24.6796C83.8321 24.4404 85.3202 23.6261 86.4018 22.3833C87.4835 21.1405 88.0878 19.5508 88.1058 17.9005C88.1238 16.2502 87.5545 14.6478 86.5002 13.3815C85.4459 12.1152 83.976 11.2682 82.3551 10.9931C82.2069 10.9685 82.068 10.9044 81.9529 10.8075C81.8379 10.7106 81.7509 10.5844 81.701 10.4422C80.6918 7.56867 78.8414 5.06843 76.3923 3.2689C73.9432 1.46937 71.009 0.45471 67.9756 0.357773ZM67.0326 1.46365C69.9962 1.36817 72.9132 2.22278 75.3604 3.90365C77.8076 5.58452 79.6579 8.00433 80.6431 10.812C80.7587 11.1406 80.9598 11.4321 81.2255 11.6563C81.4913 11.8805 81.812 12.0292 82.1543 12.0869C83.5151 12.3182 84.7489 13.0295 85.6339 14.0926C86.5189 15.1558 86.9969 16.5011 86.982 17.8865C86.9671 19.2719 86.4603 20.6066 85.5527 21.6503C84.645 22.6941 83.3962 23.3785 82.0308 23.5803C81.6551 23.6353 81.3037 23.7995 81.0199 24.0527C80.7361 24.3059 80.5324 24.6369 80.4339 25.005C80.0141 26.5772 79.3138 28.0599 78.367 29.3812C78.4952 26.7923 77.6021 24.257 75.8811 22.3246C75.8616 22.2981 75.8476 22.2678 75.84 22.2357C75.8324 22.2036 75.8314 22.1704 75.837 22.1379C75.8426 22.1055 75.8548 22.0744 75.8727 22.0468C75.8906 22.0191 75.9139 21.9955 75.9413 21.9772C77.3078 20.8025 78.1846 19.1549 78.3977 17.3615C78.6108 15.568 78.1445 13.7596 77.0914 12.2952C76.0383 10.8307 74.4754 9.8174 72.7127 9.45587C70.95 9.09435 69.1163 9.41115 67.5755 10.3436C67.3522 10.4785 67.0964 10.5498 66.8357 10.5498C66.5751 10.5498 66.3193 10.4785 66.096 10.3436H66.0797C64.5389 9.41491 62.7069 9.10083 60.9465 9.4637C59.1861 9.82656 57.6256 10.84 56.5739 12.303C55.5223 13.766 55.0562 15.5721 55.2679 17.3637C55.4796 19.1553 56.3538 20.8018 57.7172 21.9772C57.7402 21.9998 57.7585 22.0268 57.7709 22.0566C57.7834 22.0865 57.7898 22.1186 57.7898 22.1509C57.7898 22.1832 57.7834 22.2151 57.7709 22.245C57.7585 22.2748 57.7402 22.302 57.7172 22.3246C56.4804 23.7162 55.6624 25.4315 55.3583 27.2713C55.0139 26.5424 54.7356 25.7839 54.5265 25.005C54.4282 24.6374 54.225 24.3067 53.9418 24.0535C53.6586 23.8004 53.3079 23.6359 52.9328 23.5803C51.5674 23.3785 50.3186 22.6941 49.411 21.6503C48.5033 20.6066 47.9965 19.2719 47.9816 17.8865C47.9667 16.5011 48.4447 15.1558 49.3297 14.0926C50.2147 13.0295 51.4486 12.3182 52.8093 12.0869C53.151 12.0286 53.4711 11.8799 53.7362 11.6557C54.0014 11.4315 54.202 11.1402 54.3173 10.812C55.2517 8.14903 56.9657 5.83156 59.2346 4.1634C61.5036 2.49524 64.2217 1.55419 67.0326 1.46365ZM62.1655 10.4199C62.321 10.4139 62.4767 10.4139 62.6322 10.4199C63.6474 10.4638 64.6354 10.7631 65.5054 11.2901C65.9008 11.529 66.3536 11.6551 66.815 11.6551C67.2765 11.6551 67.7292 11.529 68.1246 11.2901C69.4281 10.5052 70.9777 10.2401 72.4666 10.5475C73.9555 10.855 75.2751 11.7124 76.1642 12.9501C77.0534 14.1878 77.4471 15.7156 77.2676 17.231C77.0882 18.7463 76.3484 20.1388 75.195 21.1327C75.0595 21.2504 74.9487 21.3939 74.8691 21.555C74.7895 21.7162 74.7428 21.8919 74.7316 22.0715C74.7204 22.251 74.745 22.4309 74.8039 22.6008C74.8628 22.7707 74.9549 22.9271 75.0747 23.0608C76.0183 24.1203 76.6904 25.3946 77.0328 26.7736C77.3753 28.1526 77.3777 29.5947 77.04 30.9748C75.6415 32.3964 73.9453 33.4878 72.0746 34.1696C70.2039 34.8514 68.2054 35.1067 66.2242 34.9169C64.243 34.7271 62.3287 34.0969 60.6202 33.0722C58.9116 32.0475 57.4517 30.6538 56.3463 28.9924C56.3204 26.8066 57.1111 24.6904 58.5623 23.0608C58.6816 22.9265 58.773 22.7696 58.8311 22.5994C58.8892 22.4291 58.9129 22.2488 58.9008 22.0692C58.8887 21.8896 58.841 21.7144 58.7606 21.5536C58.6801 21.3928 58.5685 21.2497 58.4323 21.1327C57.5028 20.3357 56.8349 19.2752 56.5162 18.0905C56.1974 16.9058 56.2426 15.652 56.6459 14.4935C57.0492 13.3351 57.7917 12.3259 58.7762 11.5985C59.7606 10.871 60.9411 10.4591 62.1627 10.4169L62.1655 10.4199ZM106.41 22.4456C107.68 22.4346 108.944 22.6151 110.16 22.9812C114.006 24.2613 117.387 26.6569 119.878 29.8657C123.064 34.0759 124.487 39.3688 123.843 44.6166C122.752 50.7795 119.803 56.4578 115.395 60.8845C112.617 64.0173 109.209 66.5243 105.397 68.241C101.585 69.9576 97.454 70.845 93.2758 70.8448H61.0734C60.8847 70.8452 60.6978 70.8083 60.5233 70.7361C60.3488 70.6639 60.1902 70.5577 60.0566 70.4239C59.923 70.2901 59.817 70.1313 59.7447 69.9563C59.6724 69.7813 59.6352 69.5935 59.6352 69.4041V68.2185C59.6352 67.767 59.7238 67.32 59.896 66.9029C60.0682 66.4858 60.3206 66.1071 60.6387 65.788C60.9569 65.4689 61.3345 65.2158 61.7501 65.0433C62.1657 64.8708 62.6111 64.7822 63.0608 64.7826H63.5624C63.8178 64.7828 64.0708 64.7327 64.3068 64.6348C64.5429 64.5369 64.7574 64.3934 64.9381 64.2122C65.1189 64.0311 65.2623 63.8159 65.3602 63.5791C65.4581 63.3423 65.5085 63.0884 65.5087 62.832V61.3851C65.5581 59.259 66.434 57.2367 67.9493 55.7505C69.4645 54.2644 71.4988 53.4324 73.6172 53.4324C75.7355 53.4324 77.7698 54.2644 79.2851 55.7505C80.8004 57.2367 81.6763 59.259 81.7257 61.3851V63.8615C81.73 64.0057 81.79 64.1426 81.8932 64.2431C81.9963 64.3436 82.1344 64.3997 82.2781 64.3997C82.4219 64.3997 82.5599 64.3436 82.6631 64.2431C82.7662 64.1426 82.8263 64.0057 82.8306 63.8615V61.3851C82.831 59.7646 82.4075 58.1722 81.6024 56.7677C80.7973 55.3631 79.6389 54.1956 78.243 53.3817C79.0931 53.1804 79.8942 52.8096 80.5986 52.2913C81.3031 51.773 81.8966 51.1178 82.3438 50.3646C82.791 49.6115 83.0828 48.7757 83.2019 47.9071C83.321 47.0385 83.2649 46.1546 83.037 45.3082C82.4466 43.1155 81.6294 40.9906 80.5987 38.9685C80.5317 38.8375 80.4156 38.7386 80.276 38.6935C80.1363 38.6485 79.9845 38.6609 79.854 38.7281C79.7235 38.7954 79.625 38.9119 79.58 39.0521C79.5351 39.1923 79.5475 39.3448 79.6145 39.4759C80.6091 41.4289 81.3976 43.4808 81.9671 45.5984C82.2025 46.4728 82.2163 47.3925 82.0074 48.2737C81.7984 49.1548 81.3732 49.9696 80.7705 50.6437C80.1679 51.3178 79.4068 51.8298 78.5567 52.1332C77.7066 52.4367 76.7944 52.5219 75.9031 52.381L59.4034 49.7611C58.6285 49.6352 57.935 49.2059 57.4746 48.5676C57.0143 47.9293 56.8247 47.134 56.9473 46.3556C57.0699 45.5773 57.4948 44.8794 58.1289 44.4149C58.763 43.9504 59.5547 43.7571 60.3304 43.8773L73.0331 45.895C73.1772 45.9164 73.324 45.8798 73.4414 45.7931C73.5589 45.7064 73.6374 45.5767 73.66 45.4321C73.6826 45.2876 73.6475 45.1399 73.5622 45.0213C73.4769 44.9026 73.3483 44.8226 73.2045 44.7986L66.6612 43.7596C66.7899 41.162 67.2106 38.5872 67.9153 36.0844C70.5941 36.0073 73.1994 35.1872 75.4426 33.7149C77.6857 32.2427 79.4791 30.1758 80.6241 27.7433C84.0587 29.3211 87.1227 31.6095 89.6153 34.4586C92.108 37.3076 93.9731 40.653 95.0886 44.2758C97.2957 50.0863 97.7073 56.4296 96.2697 62.4784C96.2171 62.6992 96.2207 62.9297 96.2802 63.1487C96.3396 63.3677 96.453 63.5681 96.6098 63.7316C96.7667 63.8951 96.962 64.0164 97.1777 64.0842C97.3935 64.152 97.6228 64.1643 97.8445 64.1198C102.888 63.1104 107.459 60.4587 110.849 56.5757C114.379 53.0816 116.756 48.5833 117.659 43.6892C118.055 40.1285 117.078 36.5507 114.928 33.6909C113.218 31.5009 110.909 29.8592 108.283 28.9671C106.985 28.5947 105.602 28.643 104.332 29.1048C103.062 29.5665 101.97 30.4185 101.21 31.5394C100.979 31.8802 100.683 32.1718 100.34 32.3979C99.9967 32.624 99.6125 32.7801 99.2091 32.8571C98.8058 32.9341 98.3913 32.9304 97.9894 32.8466C97.5874 32.7627 97.2058 32.6002 96.8664 32.3683C96.527 32.1364 96.2364 31.8396 96.0113 31.495C95.7861 31.1503 95.6308 30.7646 95.5542 30.3596C95.4775 29.9547 95.4811 29.5386 95.5646 29.135C95.6482 28.7315 95.8101 28.3484 96.0412 28.0077C97.1934 26.3087 98.7385 24.9153 100.544 23.9467C102.35 22.9781 104.363 22.4628 106.41 22.4456ZM67.2644 52.132L70.5631 52.6548C69.5377 53.0172 68.5842 53.5589 67.7469 54.2548C67.5649 53.5525 67.405 52.8445 67.2675 52.132H67.2644Z" fill="#333B41" stroke="#333B41" stroke-width="0.7"/>
<path d="M71.418 13.9809C70.7994 13.992 70.2102 14.2482 69.779 14.6936C69.3478 15.1391 69.1095 15.7376 69.1161 16.3587C69.1161 16.983 69.3631 17.5816 69.8028 18.023C70.2425 18.4644 70.8389 18.7125 71.4607 18.7125C72.0826 18.7125 72.679 18.4644 73.1187 18.023C73.5584 17.5816 73.8054 16.983 73.8054 16.3587C73.8087 16.0439 73.7491 15.7316 73.6301 15.4404C73.5111 15.1491 73.335 14.8847 73.1124 14.663C72.8898 14.4412 72.6251 14.2666 72.3341 14.1494C72.043 14.0323 71.7315 13.975 71.418 13.9809ZM71.4375 15.1028C71.6033 15.0995 71.768 15.1295 71.922 15.1913C72.076 15.2531 72.2161 15.3452 72.3339 15.4624C72.4517 15.5795 72.545 15.7192 72.608 15.8732C72.6711 16.0272 72.7027 16.1923 72.701 16.3587C72.7011 16.5222 72.6691 16.6841 72.6068 16.8352C72.5445 16.9863 72.4532 17.1236 72.3381 17.2392C72.2229 17.3549 72.0862 17.4465 71.9358 17.5091C71.7853 17.5716 71.6241 17.6039 71.4612 17.6039C71.2984 17.6039 71.1371 17.5716 70.9866 17.5091C70.8362 17.4465 70.6995 17.3549 70.5843 17.2392C70.4692 17.1236 70.3779 16.9863 70.3156 16.8352C70.2534 16.6841 70.2214 16.5222 70.2214 16.3587C70.2181 16.0307 70.3441 15.7145 70.5718 15.4793C70.7996 15.244 71.1107 15.1088 71.4375 15.1028Z" fill="#333B41" stroke="#333B41" stroke-width="0.7"/>
<path d="M62.135 13.9808C61.5164 13.992 60.9273 14.2481 60.4961 14.6936C60.0649 15.139 59.8266 15.7376 59.8332 16.3587C59.8243 16.6732 59.8784 16.9861 59.9921 17.2793C60.1059 17.5725 60.277 17.8399 60.4955 18.0655C60.7139 18.2911 60.9752 18.4704 61.2639 18.5929C61.5526 18.7153 61.8628 18.7785 62.1762 18.7785C62.4896 18.7785 62.7999 18.7153 63.0886 18.5929C63.3773 18.4704 63.6385 18.2911 63.857 18.0655C64.0754 17.8399 64.2466 17.5725 64.3604 17.2793C64.4741 16.9861 64.5281 16.6732 64.5193 16.3587C64.5226 16.0441 64.4631 15.7322 64.3442 15.4411C64.2254 15.1501 64.0497 14.8858 63.8274 14.6641C63.6051 14.4425 63.3408 14.2678 63.0501 14.1504C62.7594 14.033 62.4482 13.9754 62.135 13.9808ZM62.1544 15.1027C62.32 15.0998 62.4844 15.1301 62.638 15.1921C62.7917 15.254 62.9313 15.3463 63.0489 15.4633C63.1664 15.5804 63.2593 15.72 63.3222 15.8738C63.385 16.0275 63.4165 16.1925 63.4149 16.3587C63.4191 16.5246 63.3902 16.6897 63.3299 16.8442C63.2696 16.9987 63.179 17.1397 63.0636 17.2585C62.9482 17.3774 62.8103 17.4717 62.658 17.5362C62.5056 17.6007 62.342 17.6339 62.1766 17.6339C62.0113 17.6339 61.8476 17.6007 61.6953 17.5362C61.543 17.4717 61.405 17.3774 61.2896 17.2585C61.1742 17.1397 61.0837 16.9987 61.0234 16.8442C60.963 16.6897 60.9341 16.5246 60.9384 16.3587C60.9351 16.0306 61.061 15.7144 61.2888 15.4792C61.5166 15.244 61.8277 15.1087 62.1544 15.1027Z" fill="#333B41" stroke="#333B41" stroke-width="0.7"/>
<path d="M62.8482 28.1767C63.2971 28.8146 63.8919 29.335 64.5827 29.6942C65.2734 30.0534 66.04 30.2411 66.818 30.2411C67.596 30.2411 68.3626 30.0534 69.0533 29.6942C69.7441 29.335 70.3389 28.8146 70.7878 28.1767C70.8699 28.0564 70.9015 27.9084 70.8758 27.7648C70.8501 27.6213 70.7692 27.4937 70.6505 27.4096C70.5319 27.3255 70.385 27.2918 70.2416 27.3155C70.0983 27.3393 69.9701 27.4186 69.8846 27.5366C69.5379 28.0293 69.0784 28.4315 68.5447 28.7089C68.0111 28.9864 67.419 29.1311 66.818 29.1311C66.2171 29.1311 65.6249 28.9864 65.0913 28.7089C64.5576 28.4315 64.0981 28.0293 63.7514 27.5366C63.6659 27.4186 63.5377 27.3393 63.3944 27.3155C63.251 27.2918 63.1041 27.3255 62.9855 27.4096C62.8668 27.4937 62.7858 27.6213 62.7602 27.7648C62.7345 27.9084 62.7661 28.0564 62.8482 28.1767Z" fill="#333B41" stroke="#333B41" stroke-width="0.7"/>
</svg>
